<!-- by TradingView --><svg width="18" height="18" viewBox="0 0 18 18" xmlns="http://www.w3.org/2000/svg"><path fill="#F0F3FA" d="M0 0h18v18H0z"/><path d="M8.96 13a4.03 4.03 0 0 0 4.02-3.5H14A5.04 5.04 0 0 1 8.96 14 5.05 5.05 0 0 1 4 10h1.04c.45 1.73 2.03 3 3.92 3Zm0-1c1.5 0 2.76-1.08 3-2.5h-2.5c-.16 0-.5-.1-.5-.5s.34-.5.5-.5H14A5.04 5.04 0 0 0 8.96 4 5.05 5.05 0 0 0 4 8h1.04c.45-1.73 2.03-3 3.92-3a4.04 4.04 0 0 1 3.92 3h-1.05a3.04 3.04 0 0 0-2.87-2 2.93 2.93 0 0 0-2.93 3c0 1.66 1.25 3 2.93 3Z" fill="url(#at1vxsjiv)"/><defs><linearGradient id="at1vxsjiv" x1="3.9" y1="8.5" x2="14.03" y2="8.5" gradientUnits="userSpaceOnUse"><stop stop-color="#14F0D0"/><stop offset=".19" stop-color="#30D6D9"/><stop offset=".55" stop-color="#A271FF"/><stop offset="1" stop-color="#5943FF"/></linearGradient></defs></svg>