<!-- by TradingView --><svg width="18" height="18" viewBox="0 0 18 18" xmlns="http://www.w3.org/2000/svg"><path fill="url(#as001rqk5)" d="M0 0h18v18H0z"/><path d="m7 6.32 1 .25v2.37l.01.1c.03.3.09.87.75 1.22l1.8.96v.8c-.69-.37-2-1.1-2.71-1.47A1.75 1.75 0 0 1 7 9.05V6.32ZM5.72 6l.79.2-.01.24v3.2c.04.27.2.93.94 1.31l.66.35-.8.35-.78-.41c-.29-.16-1.02-.67-1.02-1.5V6.68c0-.16.07-.41.22-.68Zm4.84 6.6-1.89-1-.8.36 1.8.96c.14.08.28.12.4.15l.49-.44v-.03Z" fill="url(#bs001rqk5)"/><path d="M4 7.33v3.02c0 .78.46 1.5 1.22 1.92l2.65 1.44c1.46.8 3.13-.13 3.13-1.63v-1.49l-1 .4v1.16c0 .9-.75 1.45-1.62.98l-2.55-1.38C5.21 11.4 5 10.8 5 10.17V7.3c0-.9.96-1.45 1.83-.98l2.53 1.4c.63.34.64.95.64 1.6v1.03l1-.4v-.98c0-.65-.17-1.26-.8-1.6L7.23 5.76C5.82 4.99 4 5.88 4 7.33Z" fill="#fff"/><path d="M6.29 5.02v.1c.32-.13.84-.01 1.06.06l3.22 1.77c.74.4.9 1.07.93 1.36v3.3c0 .7-.22 1.26-.38 1.45l.03.06c.97-.45 1.35-1.35 1.35-1.75V8.21c0-.87-.72-1.4-1-1.55L8.35 4.9c-.34-.19-.69-.2-.82-.2-.62 0-1.1.21-1.25.31Z" fill="#fff"/><path d="M7.7 4.4v-.1c.17-.1.66-.3 1.3-.3.14-.01.5 0 .86.2.18.1.77.4 1.42.76l-.82.38-1.65-.87c-.23-.08-.76-.2-1.1-.06Zm3.35 1.25 1.1.58c.73.38.8 1.01.84 1.32l.01.05v3.3c0 .7-.11 1.25-.28 1.45l.04.05c1-.44 1.24-1.35 1.24-1.74V7.49c0-.86-.6-1.4-.89-1.55l-1.22-.66-.84.37Z" fill="#fff"/><defs><linearGradient id="as001rqk5" x1="2.39" y1="2.6" x2="13.06" y2="16.21" gradientUnits="userSpaceOnUse"><stop stop-color="#262223"/><stop offset="1" stop-color="#6B6A6F"/></linearGradient><linearGradient id="bs001rqk5" x1="8.03" y1="6" x2="8.03" y2="13.07" gradientUnits="userSpaceOnUse"><stop stop-color="#595758"/><stop offset=".74" stop-color="#fff"/></linearGradient></defs></svg>